<?xml version="1.0" standalone="no"?>
<!DOCTYPE svg PUBLIC "-//W3C//DTD SVG 20010904//EN"
 "http://www.w3.org/TR/2001/REC-SVG-20010904/DTD/svg10.dtd">
<svg version="1.0" xmlns="http://www.w3.org/2000/svg"
 width="1280.000000pt" height="640.000000pt" viewBox="0 0 1280.000000 640.000000"
 preserveAspectRatio="xMidYMid meet">
<metadata>
Created by potrace 1.15, written by Peter Selinger 2001-2017
</metadata>
<g transform="translate(0.000000,640.000000) scale(0.100000,-0.100000)"
fill="#fe0000" stroke="none">
<path d="M5297 5070 c-92 -6 -135 -13 -154 -25 -21 -14 -27 -15 -34 -4 -6 11
-11 10 -26 -3 -10 -9 -45 -18 -78 -22 -111 -10 -180 -24 -210 -40 -16 -9 -36
-16 -44 -16 -8 0 -33 -8 -55 -18 -47 -21 -122 -52 -214 -89 -38 -15 -83 -44
-110 -69 -25 -24 -52 -44 -59 -44 -19 0 -93 -48 -93 -60 0 -6 -12 -15 -27 -21
-15 -5 -33 -19 -40 -29 -8 -11 -38 -31 -67 -44 -29 -14 -56 -31 -59 -40 -4 -9
-26 -25 -51 -36 -24 -12 -47 -28 -50 -35 -2 -7 -22 -22 -43 -31 -21 -10 -62
-38 -91 -61 -29 -24 -71 -52 -93 -63 -22 -12 -45 -32 -51 -46 -13 -28 -74 -64
-108 -64 -12 0 -35 -15 -53 -34 -18 -18 -48 -41 -67 -51 -73 -37 -90 -47 -97
-58 -12 -19 -62 -49 -72 -43 -5 3 -37 -6 -72 -20 -208 -83 -397 -117 -771
-139 -83 -5 -114 -3 -140 8 -18 8 -74 18 -124 21 -51 4 -130 18 -175 31 -46
14 -97 25 -114 25 -27 0 -104 26 -190 65 -90 41 -292 137 -305 146 -8 5 -28
17 -44 27 -16 9 -41 27 -57 40 -23 19 -32 21 -49 12 -23 -12 -40 -6 -40 16 0
10 -9 14 -27 12 -21 -2 -28 2 -31 17 -5 23 -31 55 -45 55 -6 0 -18 -6 -26 -14
-14 -13 -23 -11 -71 13 -30 14 -73 39 -94 54 -27 18 -47 25 -63 21 -14 -4 -34
1 -51 12 -41 27 -195 104 -208 104 -7 0 -15 -8 -19 -17 -6 -16 -8 -15 -16 5
-6 17 -16 22 -45 22 -24 0 -34 -4 -32 -12 3 -7 -2 -19 -10 -27 -12 -13 -11
-17 10 -32 12 -10 17 -19 11 -19 -16 0 -17 -42 -1 -58 7 -7 22 -12 35 -12 14
0 23 -6 23 -15 0 -8 7 -15 15 -15 28 0 89 -38 142 -88 56 -52 73 -88 28 -58
-31 20 -54 20 -84 0 -20 -14 -28 -15 -63 -3 -31 10 -46 10 -72 1 -18 -7 -46
-10 -62 -6 -16 3 -40 1 -53 -4 -23 -8 -98 11 -117 31 -4 4 -17 7 -29 7 -13 0
-39 7 -58 15 -26 11 -53 13 -97 8 -74 -7 -74 -24 1 -39 62 -13 108 -35 134
-64 10 -11 33 -23 52 -26 23 -4 37 -14 43 -29 5 -13 20 -25 37 -28 119 -24
185 -50 195 -76 5 -15 16 -21 36 -21 28 0 52 -15 52 -33 0 -5 -8 -6 -17 -2
-29 12 -166 44 -190 45 -14 0 -23 -6 -23 -15 0 -11 -7 -14 -25 -9 -36 9 -44
-20 -15 -52 13 -13 29 -24 36 -24 6 0 17 -7 24 -15 16 -19 96 -55 123 -55 11
0 36 -12 56 -27 52 -40 82 -54 102 -48 10 4 28 -4 46 -20 l28 -27 -35 7 c-94
16 -118 17 -125 5 -9 -15 20 -40 46 -40 18 0 162 -91 174 -110 3 -6 36 -25 73
-43 77 -38 122 -66 122 -77 0 -4 -9 -10 -21 -13 -14 -4 -20 -12 -17 -28 4 -31
33 -47 57 -32 16 10 22 8 41 -12 15 -16 18 -24 9 -27 -20 -7 0 -28 25 -28 21
0 56 -27 56 -43 0 -4 -11 -7 -24 -7 -14 0 -38 15 -62 40 -46 47 -58 49 -90 14
-17 -18 -30 -23 -45 -19 -25 8 -109 -25 -109 -44 0 -9 12 -12 45 -9 27 2 44
-1 42 -7 -4 -12 71 -87 112 -111 17 -10 31 -22 31 -26 0 -5 -10 -2 -22 6 -13
8 -42 22 -66 32 -35 14 -47 14 -66 5 -19 -11 -28 -9 -58 7 -37 21 -58 15 -58
-17 0 -17 49 -71 64 -71 27 0 125 -55 134 -75 6 -13 20 -26 31 -30 11 -3 21
-16 23 -28 2 -14 20 -30 53 -48 28 -14 59 -40 70 -57 11 -17 24 -31 28 -32 4
0 24 -7 45 -16 l37 -16 -65 -20 c-36 -11 -71 -21 -77 -23 -20 -7 -15 -23 8
-30 11 -4 52 -7 90 -8 63 -1 82 -8 61 -21 -4 -2 -46 -10 -92 -16 -118 -16
-130 -19 -130 -41 0 -13 10 -20 38 -24 20 -3 51 -10 69 -16 23 -7 38 -7 52 1
27 14 71 2 71 -19 0 -16 51 -32 150 -47 74 -11 80 -14 80 -38 0 -31 -16 -36
-106 -36 -42 0 -84 -5 -95 -10 -15 -9 -21 -7 -25 5 -8 19 -40 20 -48 0 -7 -20
20 -45 49 -45 13 0 27 -5 31 -11 4 -8 -3 -9 -24 -4 -35 7 -102 -13 -102 -30 0
-22 77 -45 113 -34 29 8 110 3 130 -8 4 -3 3 -11 -3 -18 -9 -11 -6 -15 17 -20
15 -4 48 -13 72 -21 25 -8 52 -14 62 -14 9 0 19 -7 23 -15 7 -20 34 -19 78 4
22 11 42 15 50 10 7 -5 35 -6 62 -2 34 4 47 3 42 -5 -3 -6 2 -16 11 -22 14 -8
1 -10 -55 -5 -61 5 -77 3 -92 -10 -12 -11 -20 -13 -25 -6 -3 6 -19 11 -36 11
-22 0 -29 -5 -29 -20 0 -24 35 -40 86 -40 23 0 34 -5 34 -15 0 -9 14 -16 38
-20 107 -18 110 -20 62 -49 -17 -9 -28 -22 -25 -27 9 -14 49 -11 71 6 30 22
87 19 102 -6 11 -17 20 -20 48 -16 18 3 36 1 39 -4 4 -5 17 -9 30 -9 13 0 27
-4 30 -10 3 -5 28 -10 55 -10 26 0 55 -3 64 -6 30 -12 5 -24 -50 -24 -40 0
-54 -4 -54 -14 0 -16 53 -26 130 -25 120 2 359 -7 366 -13 4 -4 1 -14 -6 -23
-7 -8 -9 -15 -5 -15 4 0 1 -7 -6 -16 -7 -9 -18 -26 -24 -37 -7 -16 -30 -26
-80 -39 -123 -30 -130 -33 -133 -58 -3 -15 3 -29 14 -37 20 -15 120 -18 128
-4 3 5 27 12 53 15 27 4 60 9 76 12 22 5 27 2 27 -14 0 -18 9 -21 76 -27 41
-4 97 -4 122 1 26 4 73 7 106 6 32 -1 65 3 72 9 19 16 78 3 111 -24 31 -26 76
-27 152 -6 39 11 45 10 57 -6 20 -28 101 -15 132 20 23 27 52 28 52 1 0 -26
32 -26 88 -1 30 14 57 23 60 20 7 -7 -19 -35 -32 -35 -20 0 -57 -46 -51 -62 4
-11 -9 -29 -39 -54 -45 -37 -60 -74 -31 -74 8 0 19 -9 25 -20 6 -11 16 -20 23
-20 7 0 41 32 76 71 63 70 127 119 156 119 8 0 15 4 15 8 0 5 23 19 50 32 28
13 55 29 61 36 5 6 19 10 30 7 12 -3 39 7 70 26 28 17 60 31 72 31 12 0 50 24
84 53 88 75 164 127 185 127 10 0 18 7 18 15 0 8 7 15 15 15 8 0 15 -4 15 -10
0 -15 28 -12 55 6 14 9 25 12 24 8 0 -10 -124 -117 -142 -123 -7 -2 -24 -15
-39 -30 -33 -31 -36 -75 -8 -111 18 -24 21 -24 47 -10 15 9 37 30 48 47 11 17
30 34 43 37 12 4 22 12 22 19 0 11 34 47 44 47 2 0 26 21 53 48 28 26 69 61
92 77 23 17 85 67 137 113 53 45 105 82 115 82 10 0 25 11 34 24 21 32 115 83
115 62 0 -18 -61 -69 -92 -76 -16 -4 -24 -14 -26 -33 -3 -22 2 -28 24 -33 23
-6 32 -2 56 27 15 18 28 30 28 25 0 -4 -29 -40 -65 -79 -66 -72 -79 -102 -49
-114 11 -4 26 4 43 24 16 18 33 28 44 26 19 -5 22 -18 7 -28 -12 -7 -40 -71
-40 -91 0 -24 16 -15 66 37 27 28 66 64 87 80 33 24 42 26 63 17 18 -9 28 -8
36 0 7 7 19 12 28 12 22 -1 -30 -39 -53 -40 -10 0 -26 -14 -35 -31 -9 -17 -29
-50 -44 -73 -16 -24 -23 -43 -16 -45 18 -6 89 22 98 40 6 10 17 15 27 13 18
-5 104 87 213 229 29 37 52 57 66 57 13 0 65 44 145 124 68 69 125 124 126
123 3 -3 -44 -106 -57 -127 -26 -39 -43 -80 -37 -86 12 -13 56 15 71 44 8 16
24 32 35 35 11 2 33 27 50 53 33 54 89 115 143 156 19 15 53 44 76 65 23 21
66 56 97 78 54 39 55 40 55 89 0 51 15 55 22 6 2 -14 10 -25 18 -25 12 0 16
18 21 78 4 43 9 81 13 84 3 4 6 1 6 -5 0 -7 9 -12 20 -12 11 0 20 -7 20 -15 0
-21 26 -19 36 3 6 11 10 -12 14 -68 4 -67 8 -85 21 -88 11 -2 19 7 25 30 l8
33 4 -45 c3 -44 32 -90 56 -90 6 0 52 -36 101 -80 50 -43 95 -79 100 -80 6 0
19 -13 28 -30 10 -16 26 -34 37 -40 10 -5 33 -35 50 -65 17 -30 36 -55 41 -55
6 0 29 -20 51 -45 48 -52 74 -60 63 -18 -3 15 -15 39 -26 54 -10 15 -19 30
-19 34 0 4 -11 29 -25 56 -13 27 -20 49 -16 49 5 0 30 -24 56 -52 109 -121
191 -198 210 -198 20 0 47 -26 90 -86 11 -15 54 -67 95 -116 54 -65 79 -88 92
-84 11 2 22 -3 28 -14 10 -20 70 -44 95 -38 11 2 9 12 -13 44 -15 23 -35 56
-44 73 -9 17 -25 31 -35 31 -23 1 -75 39 -52 40 8 0 20 -5 27 -12 8 -8 18 -9
36 0 30 13 67 -11 143 -92 29 -31 57 -56 63 -56 17 0 11 33 -15 79 -14 24 -24
45 -23 46 14 14 42 5 61 -19 16 -20 29 -27 40 -23 31 12 18 42 -48 114 -36 39
-65 75 -65 79 0 5 13 -7 28 -25 24 -29 33 -33 56 -27 22 5 27 11 24 33 -2 19
-10 29 -26 33 -31 7 -92 58 -92 76 0 13 10 10 48 -11 26 -15 55 -38 65 -51 10
-13 26 -24 35 -24 10 0 60 -37 113 -83 52 -45 117 -98 144 -117 27 -19 84 -70
127 -112 43 -43 81 -78 84 -78 4 0 24 -20 46 -45 22 -25 48 -45 58 -45 22 0
50 41 50 73 0 24 -54 82 -97 105 -21 12 -113 99 -113 107 0 4 10 -1 22 -9 25
-18 58 -21 58 -6 0 18 22 10 27 -10 3 -12 14 -20 25 -20 23 0 130 -73 194
-132 25 -23 51 -38 66 -38 14 0 36 -8 49 -19 35 -27 71 -44 94 -45 27 -2 145
-64 145 -76 0 -6 7 -10 15 -10 28 0 89 -47 156 -119 37 -39 71 -71 77 -71 6 0
13 9 17 19 3 10 15 21 25 24 32 8 23 32 -25 71 -30 25 -45 45 -45 61 0 22 -19
43 -66 71 -36 22 -5 26 36 5 54 -28 100 -28 100 -1 0 28 27 25 53 -6 29 -34
99 -44 127 -19 17 15 25 16 62 6 74 -21 120 -19 144 5 24 25 98 41 117 25 7
-6 40 -10 73 -9 32 0 82 -3 111 -7 77 -11 184 2 190 24 4 15 12 16 65 9 33 -4
80 -15 105 -23 55 -19 67 -19 103 0 42 22 42 63 0 72 -17 3 -33 10 -36 14 -3
5 -14 9 -26 9 -11 0 -44 7 -74 16 -41 12 -54 20 -54 34 0 11 -8 23 -17 29 -10
5 -15 13 -11 17 5 4 3 13 -4 21 -6 7 -8 17 -4 21 8 7 240 14 402 12 54 -1 84
3 89 10 11 18 -14 30 -62 30 -66 0 -59 17 10 25 34 4 69 11 78 16 9 5 43 12
75 15 40 5 63 13 72 26 16 22 74 24 92 3 13 -15 80 -21 80 -7 0 4 -14 15 -31
24 -17 10 -28 22 -24 27 3 6 32 13 64 17 46 5 60 11 64 25 4 15 14 19 49 19
45 0 68 13 68 38 0 11 -10 13 -42 9 -30 -4 -45 -2 -52 9 -9 12 -21 12 -70 3
-42 -7 -62 -7 -69 0 -8 8 -8 11 1 11 7 0 12 6 12 14 0 11 14 14 63 12 35 -2
73 -8 84 -15 31 -16 80 -14 87 4 3 8 14 15 25 15 20 0 143 29 150 36 2 2 -2
10 -8 18 -11 12 -7 16 24 22 20 3 62 4 92 0 58 -7 123 9 123 29 0 20 -69 46
-90 35 -24 -13 -43 -13 -35 0 3 5 14 10 24 10 11 0 29 9 42 19 22 18 23 21 8
36 -15 15 -17 15 -32 0 -14 -13 -23 -14 -59 -4 -25 6 -67 8 -100 5 -60 -7 -70
-2 -76 42 -2 20 1 22 43 22 25 0 62 7 82 15 19 8 51 15 69 15 23 0 34 5 34 14
0 22 19 29 85 32 125 5 184 28 137 53 -10 5 -59 15 -108 22 -90 11 -123 24
-105 42 5 5 16 5 29 -2 13 -7 38 -7 78 -1 33 6 60 10 62 10 1 0 2 6 2 13 0 8
-21 19 -47 26 -27 6 -61 16 -78 20 l-30 8 35 15 c19 8 43 18 53 21 9 4 17 13
17 20 0 17 52 58 98 76 17 8 32 20 32 28 0 34 142 143 185 143 14 0 75 62 75
77 0 6 -6 16 -14 22 -12 10 -23 7 -55 -14 -23 -14 -41 -21 -41 -16 0 28 -80
14 -148 -25 -25 -14 -25 -14 3 8 67 53 126 112 121 123 -3 9 8 11 39 8 25 -3
45 -1 49 5 10 16 -78 54 -108 46 -17 -4 -28 1 -44 20 -28 36 -48 33 -93 -14
-25 -26 -48 -40 -64 -40 -23 0 -24 2 -15 20 6 11 25 23 43 28 24 6 32 14 32
31 0 29 33 55 51 40 18 -15 52 -2 59 21 8 24 -1 40 -21 40 -42 0 3 39 100 85
32 16 77 44 99 62 22 19 57 43 76 54 20 10 43 23 51 29 8 5 28 11 43 15 20 4
27 11 25 23 -4 19 -23 20 -100 9 -27 -4 -48 -3 -48 1 0 13 58 42 73 36 8 -3
43 13 77 35 35 23 71 41 80 41 25 0 105 37 120 55 7 8 18 15 24 15 15 0 56 42
56 57 0 14 -28 25 -42 17 -5 -3 -15 2 -22 12 -12 16 -18 16 -77 4 -35 -7 -82
-19 -103 -27 -22 -7 -41 -11 -44 -8 -11 10 22 35 47 35 17 0 30 7 36 21 11 23
40 35 156 65 50 13 73 24 77 36 2 10 20 22 41 28 21 5 48 21 61 35 13 14 31
25 40 25 9 0 21 5 27 11 7 7 35 15 64 20 58 9 67 15 52 30 -12 12 -125 7 -188
-9 -22 -5 -62 -19 -89 -31 -37 -16 -56 -20 -75 -13 -14 5 -41 7 -59 4 -19 -2
-44 1 -57 8 -19 10 -33 10 -69 0 -38 -10 -48 -10 -67 4 -30 20 -53 20 -85 0
-47 -32 -36 -5 22 51 59 56 119 95 149 95 8 0 15 6 15 14 0 8 12 16 26 18 37
4 53 31 36 59 -12 18 -11 21 7 26 24 6 26 16 8 35 -8 7 -12 19 -9 26 2 8 -8
12 -31 12 -27 0 -37 -5 -42 -21 -6 -19 -8 -20 -26 -3 -18 16 -23 14 -111 -31
-51 -26 -101 -54 -110 -62 -11 -10 -28 -14 -47 -10 -22 5 -39 -1 -68 -21 -21
-15 -62 -38 -90 -51 -47 -22 -56 -23 -78 -11 -22 12 -27 11 -45 -5 -11 -10
-20 -23 -20 -29 0 -6 -4 -17 -9 -25 -8 -12 -12 -13 -26 -1 -14 11 -17 10 -22
-9 -5 -20 -10 -22 -40 -16 -29 5 -39 2 -60 -19 -14 -14 -31 -26 -38 -26 -6 0
-20 -9 -30 -20 -10 -11 -27 -22 -38 -26 -11 -4 -85 -37 -165 -75 -79 -38 -148
-69 -153 -69 -4 0 -33 -11 -63 -25 -31 -14 -77 -28 -103 -31 -26 -3 -77 -14
-113 -24 -78 -22 -171 -35 -222 -31 -20 1 -51 -5 -69 -14 -29 -15 -54 -17
-198 -11 -149 6 -221 14 -401 47 -84 16 -237 60 -314 91 -37 15 -74 28 -82 28
-23 0 -63 23 -69 39 -3 9 -31 27 -62 41 -30 14 -73 42 -95 63 -22 20 -47 37
-56 37 -31 1 -94 37 -106 61 -6 13 -40 42 -74 65 -34 22 -72 50 -84 61 -13 11
-39 29 -58 39 -19 10 -53 34 -74 52 -22 17 -45 32 -51 32 -6 0 -22 11 -35 25
-13 14 -43 35 -67 47 -23 12 -53 32 -65 45 -12 13 -27 23 -34 23 -7 0 -22 11
-32 25 -11 14 -44 38 -74 53 -29 15 -67 41 -84 57 -17 17 -42 35 -55 41 -107
52 -184 84 -198 84 -9 0 -25 6 -36 14 -11 8 -44 21 -74 30 -29 9 -60 21 -67
27 -14 11 -90 25 -199 35 -37 4 -65 12 -72 21 -10 13 -15 14 -27 4 -12 -10
-20 -9 -39 3 -17 12 -68 19 -178 26 -162 10 -228 7 -294 -15 -22 -8 -70 -16
-107 -19 -37 -3 -102 -17 -145 -31 -86 -28 -85 -28 -193 -78 -41 -19 -92 -42
-113 -51 -21 -8 -59 -32 -85 -51 -26 -20 -65 -47 -86 -61 l-39 -26 -26 21
c-14 12 -39 28 -56 37 -16 10 -48 32 -71 50 -22 19 -66 45 -96 58 -31 14 -94
43 -140 64 -118 56 -200 82 -292 94 -45 5 -99 16 -121 23 -56 19 -169 24 -318
15z m941 -2367 c-2 -10 -11 -19 -21 -21 -16 -3 -17 -1 -5 17 16 25 31 27 26 4z
m348 -51 c-10 -10 -39 25 -31 38 5 8 12 5 22 -10 8 -12 12 -24 9 -28z m59 -70
c-3 -3 -11 0 -18 7 -9 10 -8 11 6 5 10 -3 15 -9 12 -12z m-1039 -267 c-11 -8
-22 -12 -25 -9 -6 6 19 24 34 24 6 -1 1 -7 -9 -15z m1599 -25 c3 -5 -1 -10 -9
-10 -8 0 -18 5 -21 10 -3 6 1 10 9 10 8 0 18 -4 21 -10z m-2050 -270 c-3 -5
-11 -10 -16 -10 -6 0 -7 5 -4 10 3 6 11 10 16 10 6 0 7 -4 4 -10z m2500 -31
c11 -17 -1 -21 -15 -4 -8 9 -8 15 -2 15 6 0 14 -5 17 -11z m-3575 -208 c0 -5
-7 -12 -16 -15 -14 -5 -15 -4 -4 9 14 17 20 19 20 6z m4651 -48 c13 -16 12
-17 -3 -4 -10 7 -18 15 -18 17 0 8 8 3 21 -13z m-4749 -28 c-34 -28 -42 -31
-42 -12 0 8 10 19 23 25 40 19 49 13 19 -13z m4838 -20 c17 -9 30 -22 30 -30
0 -12 -8 -10 -35 7 -19 13 -35 26 -35 31 0 10 7 9 40 -8z"/>
</g>
</svg>
