<?xml version="1.0" standalone="no"?>
<!DOCTYPE svg PUBLIC "-//W3C//DTD SVG 20010904//EN"
 "http://www.w3.org/TR/2001/REC-SVG-20010904/DTD/svg10.dtd">
<svg version="1.0" xmlns="http://www.w3.org/2000/svg"
 width="640.000000pt" height="1280.000000pt" viewBox="0 0 640.000000 1280.000000"
 preserveAspectRatio="xMidYMid meet">
<metadata>
Created by potrace 1.15, written by Peter Selinger 2001-2017
</metadata>
<g transform="translate(0.000000,1280.000000) scale(0.100000,-0.100000)"
fill="#fe0000" stroke="none">
<path d="M1513 12779 c-54 -26 -138 -116 -166 -176 -21 -46 -22 -65 -27 -388
-6 -378 -5 -375 -76 -433 -108 -89 -246 -58 -390 86 l-72 73 -334 -3 c-291 -3
-337 -5 -364 -20 -36 -20 -61 -65 -74 -140 -7 -34 -9 -1945 -8 -5413 3 -4738
5 -5364 18 -5395 8 -20 22 -45 30 -56 34 -47 46 -49 398 -52 l334 -3 72 73
c144 144 282 175 390 86 71 -58 70 -55 76 -433 5 -323 6 -342 27 -388 28 -60
113 -150 167 -177 42 -20 53 -20 1686 -20 1633 0 1644 0 1686 20 54 27 139
117 167 177 21 46 22 65 27 388 6 378 5 375 76 433 108 89 248 58 390 -86 l72
-73 334 3 c352 3 360 4 399 52 46 56 44 -208 44 5486 0 4495 -2 5383 -14 5422
-16 56 -56 97 -107 109 -22 4 -178 9 -348 9 l-309 0 -71 -72 c-142 -144 -282
-175 -390 -86 -71 58 -70 55 -76 433 -5 323 -6 342 -27 388 -28 60 -113 150
-167 177 -42 20 -53 20 -1687 20 -1640 0 -1644 0 -1686 -21z m1931 -1010 c232
-17 519 -57 578 -79 86 -32 118 -78 118 -168 0 -26 -9 -65 -19 -87 -41 -89
-102 -117 -316 -145 -175 -23 -250 -48 -281 -94 -14 -22 -16 -41 -11 -104 5
-84 25 -145 67 -207 15 -22 128 -135 251 -251 268 -252 284 -275 284 -413 0
-143 -28 -183 -341 -480 -205 -194 -253 -252 -274 -329 -20 -76 7 -178 62
-229 39 -37 107 -61 238 -83 185 -31 236 -47 281 -90 37 -35 39 -40 39 -96 -1
-108 -58 -185 -163 -218 -29 -9 -108 -23 -177 -31 -221 -27 -273 -59 -285
-177 -3 -35 -5 -364 -3 -733 l3 -669 45 -30 c99 -64 156 -114 211 -183 282
-354 199 -858 -183 -1110 l-73 -49 -3 -669 c-2 -369 0 -698 3 -733 12 -118 64
-150 285 -177 69 -8 148 -22 177 -31 105 -33 162 -110 163 -218 0 -56 -2 -61
-39 -96 -45 -43 -96 -59 -281 -90 -131 -22 -199 -46 -238 -83 -55 -51 -82
-153 -62 -229 21 -77 69 -135 274 -329 313 -297 341 -337 341 -480 0 -138 -16
-161 -284 -413 -123 -116 -236 -229 -251 -251 -42 -62 -62 -123 -67 -207 -5
-63 -3 -82 11 -104 31 -46 106 -71 281 -94 214 -28 275 -56 316 -145 21 -45
25 -119 8 -162 -30 -79 -97 -106 -353 -138 -470 -59 -682 -59 -1152 0 -222 28
-291 49 -331 101 -49 65 -42 178 15 246 43 51 114 75 289 98 173 23 248 48
279 94 14 22 16 41 11 104 -10 156 -46 206 -326 468 -246 229 -270 261 -279
382 -10 142 34 206 339 495 113 108 220 217 237 244 56 89 64 181 22 263 -41
79 -102 110 -280 140 -185 31 -236 47 -281 90 -37 35 -39 40 -39 96 1 108 58
185 164 218 28 9 107 23 175 31 68 8 146 22 172 30 67 23 106 69 114 137 3 29
5 359 3 733 l-3 679 -72 48 c-466 308 -467 968 -3 1274 l75 50 3 679 c2 374 0
704 -3 733 -8 68 -47 114 -114 137 -26 8 -104 22 -172 30 -68 8 -147 22 -175
31 -106 33 -163 110 -164 218 0 56 2 61 39 96 45 43 96 59 281 90 178 30 239
61 280 140 42 82 34 174 -22 263 -17 27 -124 136 -237 244 -305 289 -349 353
-339 495 9 121 33 153 279 382 128 119 233 225 257 261 47 68 72 151 72 236 0
106 -54 137 -294 169 -174 23 -245 47 -288 98 -57 68 -64 181 -15 246 40 52
109 73 336 101 355 45 563 54 815 34z"/>
</g>
</svg>
